<svg xmlns="http://www.w3.org/2000/svg" viewBox="0 0 128 128">
  <defs>
    <linearGradient id="cp" x1="0" y1="0" x2="1" y2="1"><stop offset="0%" stop-color="#475569"/><stop offset="100%" stop-color="#94a3b8"/></linearGradient>
    <filter id="sh" x="-50%" y="-50%" width="200%" height="200%"><feDropShadow dx="0" dy="5" stdDeviation="4" flood-color="#000" flood-opacity="0.28"/></filter>
  </defs>
  <ellipse cx="64" cy="116" rx="26.5" ry="9" fill="rgba(15,23,42,0.25)"/>
  <path d="M46 92 L48 68 L55 90 L47 108Z" fill="#334155"/>
  <path d="M82 92 L80 68 L73 90 L81 108Z" fill="#334155"/>
  <g>
  <rect x="43.5" y="44" width="41" height="40" rx="10" fill="url(#cp)" stroke="#94a3b8" stroke-width="2" filter="url(#sh)"/>
  <path d="M48 34.8 Q48 14 64 14 Q80 14 80 34.8 Z" fill="#e2e8f0" stroke="#94a3b8" stroke-width="2"/>
  </g>
  <circle cx="59" cy="29" r="3" fill="#0f172a"/>
  <circle cx="69" cy="29" r="3" fill="#0f172a"/>
  <path d="M59.5 34.8 Q64 38 68.5 34.8" fill="none" stroke="#475569" stroke-width="2" stroke-linecap="round"/>
  <path d="M43.5 52 L33.5 64" stroke="#94a3b8" stroke-width="8" stroke-linecap="round"/>
  <path d="M84.5 52 L94.5 64" stroke="#94a3b8" stroke-width="8" stroke-linecap="round"/>
  <path d="M41.5 50 Q33.1 33.6 17.5 41.4 Q25.3 46 37.5 52" fill="#94a3b8" opacity="0.6" stroke="#475569" stroke-width="1"/><path d="M86.5 50 Q94.9 33.6 110.5 41.4 Q102.7 46 90.5 52" fill="#94a3b8" opacity="0.6" stroke="#475569" stroke-width="1"/><path d="M45.55 16 L51.084999999999994 2 L56.62 10 L64 -2 L71.38 10 L76.91499999999999 2 L82.44999999999999 16Z" fill="#94a3b8" stroke="#475569" stroke-width="2"/><circle cx="64" cy="4" r="3" fill="#fbbf24"/><circle cx="52.93" cy="8" r="2" fill="#ef4444" opacity="0.8"/><circle cx="75.07" cy="8" r="2" fill="#3b82f6" opacity="0.8"/>
</svg>