<svg xmlns="http://www.w3.org/2000/svg" viewBox="0 0 128 128">
  <defs>
    <linearGradient id="cp" x1="0" y1="0" x2="1" y2="1"><stop offset="0%" stop-color="#475569"/><stop offset="100%" stop-color="#94a3b8"/></linearGradient>
    <filter id="sh" x="-50%" y="-50%" width="200%" height="200%"><feDropShadow dx="0" dy="5" stdDeviation="4" flood-color="#000" flood-opacity="0.28"/></filter>
  </defs>
  <ellipse cx="64" cy="112" rx="21" ry="9" fill="rgba(15,23,42,0.25)"/>
  <path d="M52 92 L54 77 L58 90 L53 108Z" fill="#334155"/>
  <path d="M76 92 L74 77 L70 90 L75 108Z" fill="#334155"/>
  <g>
  <rect x="51" y="48" width="26" height="38" rx="12" fill="url(#cp)" stroke="#94a3b8" stroke-width="2" filter="url(#sh)"/>
  <path d="M50 46.4 L64 24 L78 46.4Z" fill="#e2e8f0" stroke="#94a3b8" stroke-width="2"/>
  </g>
  <circle cx="60" cy="37" r="2" fill="#0f172a"/>
  <circle cx="68" cy="37" r="2" fill="#0f172a"/>
  <path d="M60 42.2 Q64 45 68 42.2" fill="none" stroke="#475569" stroke-width="2" stroke-linecap="round"/>
  <path d="M49 58 L39 70" stroke="#94a3b8" stroke-width="5" stroke-linecap="round"/>
  <path d="M79 58 L89 70" stroke="#94a3b8" stroke-width="5" stroke-linecap="round"/>
  <path d="M52 24 Q46 14 54 16" fill="none" stroke="#475569" stroke-width="3" stroke-linecap="round"/><path d="M76 24 Q82 14 74 16" fill="none" stroke="#475569" stroke-width="3" stroke-linecap="round"/>
</svg>